<?xml version="1.0" encoding="UTF-8" standalone="no" ?>
<!DOCTYPE svg PUBLIC "-//W3C//DTD SVG 1.1//EN" "http://www.w3.org/Graphics/SVG/1.1/DTD/svg11.dtd">
<svg xmlns="http://www.w3.org/2000/svg" xmlns:xlink="http://www.w3.org/1999/xlink" version="1.1" width="500" height="500" viewBox="0 0 500 500" xml:space="preserve">
<desc>Created with Fabric.js 3.6.3</desc>
<defs>
</defs>
<g transform="matrix(1 0 0 1 249.99593643854726 331.71139879672717)" style=""  ><path fill="#000000" opacity="1" d="M-193.79-5.37L-193.79 5.37Q-193.79 5.98-193.70 6.25Q-193.60 6.52-193.33 6.62Q-193.06 6.71-192.46 6.71L-192.46 6.71L-191.66 6.71Q-189.83 6.71-188.49 5.74Q-187.16 4.76-186.71 3.10L-186.71 3.10Q-186.71 3.05-186.62 3.05L-186.62 3.05Q-186.57 3.05-186.51 3.09Q-186.45 3.12-186.45 3.15L-186.45 3.15Q-186.66 5.47-186.66 7.01L-186.66 7.01Q-186.66 7.20-186.75 7.28Q-186.83 7.37-187.02 7.37L-187.02 7.37L-198.08 7.37Q-198.13 7.37-198.13 7.23Q-198.13 7.08-198.08 7.08L-198.08 7.08Q-197.33 7.08-196.99 6.97Q-196.65 6.85-196.52 6.51Q-196.39 6.17-196.39 5.47L-196.39 5.47L-196.39-5.39Q-196.39-6.09-196.52-6.42Q-196.65-6.75-197.00-6.88Q-197.36-7.01-198.08-7.01L-198.08-7.01Q-198.13-7.01-198.13-7.15Q-198.13-7.29-198.08-7.29L-198.08-7.29L-196.89-7.27Q-195.81-7.22-195.10-7.22L-195.10-7.22Q-194.40-7.22-193.32-7.27L-193.32-7.27L-192.13-7.29Q-192.06-7.29-192.06-7.15Q-192.06-7.01-192.13-7.01L-192.13-7.01Q-192.85-7.01-193.21-6.88Q-193.56-6.75-193.67-6.41Q-193.79-6.07-193.79-5.37L-193.79-5.37Z"/><path fill="#000000" opacity="1" d="M-167.81 7.08Q-167.69 7.08-167.69 7.23Q-167.69 7.37-167.81 7.37L-167.81 7.37Q-168.28 7.37-169.26 7.32L-169.26 7.32Q-170.30 7.27-170.74 7.27L-170.74 7.27Q-171.33 7.27-172.17 7.32L-172.17 7.32Q-172.97 7.37-173.44 7.37L-173.44 7.37Q-173.53 7.37-173.53 7.23Q-173.53 7.08-173.44 7.08L-173.44 7.08Q-172.83 7.08-172.56 6.96Q-172.29 6.83-172.29 6.50L-172.29 6.50Q-172.29 6.10-172.76 5.16L-172.76 5.16L-175.20 0.36L-179.37 0.36L-181.04 4.04Q-181.34 4.72-181.34 5.30L-181.34 5.30Q-181.34 6.15-180.74 6.62Q-180.14 7.08-179.14 7.08L-179.14 7.08Q-179.02 7.08-179.02 7.23Q-179.02 7.37-179.14 7.37L-179.14 7.37Q-179.56 7.37-180.36 7.32L-180.36 7.32Q-181.25 7.27-181.90 7.27L-181.90 7.27Q-182.54 7.27-183.43 7.32L-183.43 7.32Q-184.22 7.37-184.72 7.37L-184.72 7.37Q-184.81 7.37-184.81 7.23Q-184.81 7.08-184.72 7.08L-184.72 7.08Q-184.06 7.08-183.62 6.82Q-183.17 6.55-182.72 5.85Q-182.28 5.16-181.67 3.80L-181.67 3.80L-176.58-7.38Q-176.53-7.45-176.37-7.45L-176.37-7.45Q-176.18-7.45-176.16-7.38L-176.16-7.38L-170.30 4.15Q-169.48 5.82-168.94 6.45Q-168.40 7.08-167.81 7.08L-167.81 7.08ZM-177.40-4.01L-179.07-0.30L-175.53-0.30L-177.40-4.01Z"/><path fill="#000000" opacity="1" d="M-147.01-7.29Q-146.96-7.29-146.96-7.15Q-146.96-7.01-147.01-7.01L-147.01-7.01Q-147.88-7.01-148.64-6.27Q-149.40-5.53-149.90-4.24L-149.90-4.24L-154.23 7.34Q-154.26 7.44-154.49 7.44L-154.49 7.44Q-154.73 7.44-154.75 7.34L-154.75 7.34L-157.75 0.99L-160.12 7.34Q-160.14 7.44-160.38 7.44L-160.38 7.44Q-160.61 7.44-160.64 7.34L-160.64 7.34L-166.61-5.34Q-166.97-6.09-167.19-6.42Q-167.41-6.75-167.68-6.88Q-167.95-7.01-168.40-7.01L-168.40-7.01Q-168.47-7.01-168.47-7.15Q-168.47-7.29-168.40-7.29L-168.40-7.29Q-168.05-7.29-167.90-7.27L-167.90-7.27Q-167.44-7.22-166.69-7.22L-166.69-7.22Q-165.11-7.22-164.04-7.27L-164.04-7.27Q-163.73-7.29-163.28-7.29L-163.28-7.29Q-163.21-7.29-163.21-7.15Q-163.21-7.01-163.28-7.01L-163.28-7.01Q-163.87-7.01-164.12-6.89Q-164.36-6.77-164.36-6.47L-164.36-6.47Q-164.36-6.07-163.82-4.92L-163.82-4.92L-159.60 4.04L-158.13 0.17L-160.73-5.34Q-161.13-6.19-161.48-6.60Q-161.83-7.01-162.23-7.01L-162.23-7.01Q-162.30-7.01-162.30-7.15Q-162.30-7.29-162.23-7.29L-162.23-7.29Q-162.00-7.29-161.68-7.25Q-161.36-7.22-160.78-7.22L-160.78-7.22Q-159.44-7.22-158.55-7.27L-158.55-7.27Q-158.31-7.29-157.94-7.29L-157.94-7.29Q-157.87-7.29-157.87-7.15Q-157.87-7.01-157.94-7.01L-157.94-7.01Q-158.27-7.01-158.42-6.93Q-158.57-6.84-158.57-6.63L-158.57-6.63Q-158.57-6.23-157.94-4.92L-157.94-4.92L-156.91-2.74L-156.32-4.31Q-155.80-5.65-155.80-6.33L-155.80-6.33Q-155.80-7.01-156.39-7.01L-156.39-7.01Q-156.46-7.01-156.46-7.15Q-156.46-7.29-156.39-7.29L-156.39-7.29Q-156.20-7.29-155.98-7.25Q-155.76-7.22-154.87-7.22L-154.87-7.22Q-154.47-7.22-153.91-7.27L-153.91-7.27L-153.04-7.29Q-152.99-7.29-152.99-7.15Q-152.99-7.01-153.04-7.01L-153.04-7.01Q-154.61-7.01-155.64-4.24L-155.64-4.24L-156.51-1.92L-153.69 4.01L-150.67-4.08Q-150.39-4.83-150.39-5.44L-150.39-5.44Q-150.39-6.16-150.75-6.59Q-151.12-7.01-151.72-7.01L-151.72-7.01Q-151.80-7.01-151.80-7.15Q-151.80-7.29-151.72-7.29L-151.72-7.29L-150.65-7.27Q-149.80-7.22-149.10-7.22L-149.10-7.22Q-148.63-7.22-148.02-7.27L-148.02-7.27L-147.01-7.29Z"/><path fill="#000000" opacity="1" d=""/><path fill="#000000" opacity="1" d="M-130.32 7.65Q-132.50 7.65-134.20 6.63Q-135.90 5.61-136.82 3.86Q-137.75 2.11-137.75 0.05L-137.75 0.05Q-137.75-2.37-136.53-4.09Q-135.31-5.81-133.40-6.68Q-131.49-7.55-129.50-7.55L-129.50-7.55Q-127.27-7.55-125.58-6.50Q-123.89-5.46-122.99-3.75Q-122.09-2.04-122.09-0.11L-122.09-0.11Q-122.09 2.02-123.21 3.80Q-124.34 5.58-126.22 6.62Q-128.11 7.65-130.32 7.65L-130.32 7.65ZM-129.54 7.06Q-128.23 7.06-127.19 6.30Q-126.14 5.54-125.56 4.07Q-124.97 2.61-124.97 0.57L-124.97 0.57Q-124.97-1.59-125.63-3.29Q-126.28-4.99-127.53-5.95Q-128.77-6.91-130.43-6.91L-130.43-6.91Q-132.57-6.91-133.72-5.31Q-134.87-3.70-134.87-0.82L-134.87-0.82Q-134.87 1.46-134.17 3.25Q-133.48 5.04-132.27 6.05Q-131.07 7.06-129.54 7.06L-129.54 7.06Z"/><path fill="#000000" opacity="1" d="M-108.42-7.08L-108.37-3.96Q-108.37-3.91-108.50-3.89Q-108.63-3.87-108.65-3.94L-108.65-3.94Q-109.02-5.30-109.92-5.95Q-110.81-6.61-112.26-6.61L-112.26-6.61L-112.96-6.61Q-113.67-6.61-114.00-6.30Q-114.32-6.00-114.32-5.37L-114.32-5.37L-114.32-0.30L-112.64-0.30Q-111.28-0.30-110.56-0.78Q-109.85-1.26-109.85-2.11L-109.85-2.11Q-109.85-2.15-109.70-2.15Q-109.56-2.15-109.56-2.11L-109.56-2.11L-109.59 0.03Q-109.59 0.78-109.56 1.15L-109.56 1.15L-109.54 2.40Q-109.54 2.47-109.68 2.47Q-109.82 2.47-109.82 2.40L-109.82 2.40Q-109.82 1.46-110.56 0.91Q-111.30 0.36-112.66 0.36L-112.66 0.36L-114.32 0.36L-114.32 5.37Q-114.32 6.10-114.14 6.45Q-113.95 6.80-113.43 6.94Q-112.92 7.08-111.82 7.08L-111.82 7.08Q-111.77 7.08-111.77 7.23Q-111.77 7.37-111.82 7.37L-111.82 7.37Q-112.78 7.37-113.32 7.34L-113.32 7.34L-115.71 7.32L-117.47 7.34Q-117.94 7.37-118.76 7.37L-118.76 7.37Q-118.83 7.37-118.83 7.23Q-118.83 7.08-118.76 7.08L-118.76 7.08Q-117.94 7.08-117.56 6.97Q-117.18 6.85-117.06 6.51Q-116.93 6.17-116.93 5.47L-116.93 5.47L-116.93-5.39Q-116.93-6.09-117.04-6.42Q-117.16-6.75-117.51-6.88Q-117.86-7.01-118.59-7.01L-118.59-7.01Q-118.66-7.01-118.66-7.15Q-118.66-7.29-118.59-7.29L-118.59-7.29L-108.65-7.29Q-108.42-7.29-108.42-7.08L-108.42-7.08Z"/><path fill="#000000" opacity="1" d="M-94.79-7.08L-94.74-3.96Q-94.74-3.91-94.87-3.89Q-95.00-3.87-95.03-3.94L-95.03-3.94Q-95.40-5.30-96.29-5.95Q-97.18-6.61-98.64-6.61L-98.64-6.61L-99.34-6.61Q-100.04-6.61-100.37-6.30Q-100.70-6.00-100.70-5.37L-100.70-5.37L-100.70-0.30L-99.01-0.30Q-97.65-0.30-96.94-0.78Q-96.22-1.26-96.22-2.11L-96.22-2.11Q-96.22-2.15-96.08-2.15Q-95.94-2.15-95.94-2.11L-95.94-2.11L-95.96 0.03Q-95.96 0.78-95.94 1.15L-95.94 1.15L-95.92 2.40Q-95.92 2.47-96.06 2.47Q-96.20 2.47-96.20 2.40L-96.20 2.40Q-96.20 1.46-96.94 0.91Q-97.68 0.36-99.04 0.36L-99.04 0.36L-100.70 0.36L-100.70 5.37Q-100.70 6.10-100.51 6.45Q-100.33 6.80-99.81 6.94Q-99.29 7.08-98.19 7.08L-98.19 7.08Q-98.14 7.08-98.14 7.23Q-98.14 7.37-98.19 7.37L-98.19 7.37Q-99.15 7.37-99.69 7.34L-99.69 7.34L-102.08 7.32L-103.84 7.34Q-104.31 7.37-105.13 7.37L-105.13 7.37Q-105.20 7.37-105.20 7.23Q-105.20 7.08-105.13 7.08L-105.13 7.08Q-104.31 7.08-103.94 6.97Q-103.56 6.85-103.43 6.51Q-103.30 6.17-103.30 5.47L-103.30 5.47L-103.30-5.39Q-103.30-6.09-103.42-6.42Q-103.54-6.75-103.89-6.88Q-104.24-7.01-104.97-7.01L-104.97-7.01Q-105.04-7.01-105.04-7.15Q-105.04-7.29-104.97-7.29L-104.97-7.29L-95.03-7.29Q-94.79-7.29-94.79-7.08L-94.79-7.08Z"/><path fill="#000000" opacity="1" d="M-86.98 5.47Q-86.98 6.19-86.87 6.52Q-86.75 6.85-86.41 6.97Q-86.07 7.08-85.32 7.08L-85.32 7.08Q-85.25 7.08-85.25 7.23Q-85.25 7.37-85.32 7.37L-85.32 7.37Q-86.09 7.37-86.54 7.34L-86.54 7.34L-88.32 7.32L-90.05 7.34Q-90.52 7.37-91.32 7.37L-91.32 7.37Q-91.37 7.37-91.37 7.23Q-91.37 7.08-91.32 7.08L-91.32 7.08Q-90.57 7.08-90.22 6.97Q-89.87 6.85-89.74 6.51Q-89.61 6.17-89.61 5.47L-89.61 5.47L-89.61-5.39Q-89.61-6.09-89.74-6.42Q-89.87-6.75-90.22-6.88Q-90.57-7.01-91.32-7.01L-91.32-7.01Q-91.37-7.01-91.37-7.15Q-91.37-7.29-91.32-7.29L-91.32-7.29L-90.05-7.27Q-88.98-7.22-88.32-7.22L-88.32-7.22Q-87.59-7.22-86.51-7.27L-86.51-7.27L-85.32-7.29Q-85.25-7.29-85.25-7.15Q-85.25-7.01-85.32-7.01L-85.32-7.01Q-86.04-7.01-86.40-6.87Q-86.75-6.73-86.87-6.39Q-86.98-6.05-86.98-5.34L-86.98-5.34L-86.98 5.47Z"/><path fill="#000000" opacity="1" d="M-73.03-7.55Q-72.00-7.55-70.87-7.37Q-69.75-7.20-69.12-6.91L-69.12-6.91Q-68.90-6.84-68.85-6.74Q-68.79-6.63-68.74-6.37L-68.74-6.37L-68.46-3.12Q-68.46-3.05-68.58-3.02Q-68.69-3.00-68.72-3.09L-68.72-3.09Q-69.51-4.94-70.85-5.95Q-72.19-6.96-73.95-6.96L-73.95-6.96Q-76.27-6.96-77.53-5.25Q-78.80-3.54-78.80-0.65L-78.80-0.65Q-78.80 1.50-78.11 3.29Q-77.42 5.07-76.16 6.11Q-74.91 7.16-73.31 7.16L-73.31 7.16Q-71.81 7.16-70.63 6.16Q-69.44 5.16-68.51 3.12L-68.51 3.12Q-68.48 3.03-68.35 3.05Q-68.22 3.08-68.22 3.15L-68.22 3.15L-68.58 6.33Q-68.62 6.62-68.68 6.70Q-68.74 6.78-68.95 6.87L-68.95 6.87Q-71.04 7.65-73.24 7.65L-73.24 7.65Q-76.10 7.65-78.03 6.51Q-79.95 5.37-80.85 3.63Q-81.75 1.88-81.75-0.02L-81.75-0.02Q-81.75-2.25-80.55-3.96Q-79.34-5.67-77.33-6.61Q-75.33-7.55-73.03-7.55L-73.03-7.55Z"/><path fill="#000000" opacity="1" d="M-54.20 3.64Q-54.20 3.59-54.11 3.59L-54.11 3.59Q-54.04 3.59-53.98 3.63Q-53.92 3.66-53.92 3.68L-53.92 3.68Q-54.15 5.51-54.15 7.01L-54.15 7.01Q-54.15 7.20-54.23 7.28Q-54.30 7.37-54.51 7.37L-54.51 7.37L-64.87 7.37Q-64.94 7.37-64.94 7.23Q-64.94 7.08-64.87 7.08L-64.87 7.08Q-64.12 7.08-63.78 6.97Q-63.44 6.85-63.32 6.51Q-63.21 6.17-63.21 5.47L-63.21 5.47L-63.21-5.39Q-63.21-6.09-63.32-6.42Q-63.44-6.75-63.79-6.88Q-64.14-7.01-64.87-7.01L-64.87-7.01Q-64.94-7.01-64.94-7.15Q-64.94-7.29-64.87-7.29L-64.87-7.29L-54.93-7.29Q-54.69-7.29-54.69-7.08L-54.69-7.08L-54.65-3.96Q-54.65-3.91-54.78-3.89Q-54.91-3.87-54.93-3.94L-54.93-3.94Q-55.30-5.30-56.19-5.95Q-57.09-6.61-58.54-6.61L-58.54-6.61L-59.24-6.61Q-59.95-6.61-60.27-6.30Q-60.60-6.00-60.60-5.37L-60.60-5.37L-60.60-0.58L-58.66-0.58Q-57.30-0.58-56.57-1.05Q-55.84-1.52-55.84-2.37L-55.84-2.37Q-55.84-2.44-55.71-2.44Q-55.59-2.44-55.59-2.37L-55.59-2.37L-55.61-0.25L-55.59 0.87Q-55.54 1.67-55.54 2.14L-55.54 2.14Q-55.54 2.18-55.68 2.18Q-55.82 2.18-55.82 2.14L-55.82 2.14Q-55.82 1.18-56.56 0.62Q-57.30 0.07-58.68 0.07L-58.68 0.07L-60.60 0.07L-60.60 5.37Q-60.60 6.05-60.35 6.38Q-60.09 6.71-59.52 6.71L-59.52 6.71L-58.75 6.71Q-56.92 6.71-55.82 5.96Q-54.72 5.21-54.20 3.64L-54.20 3.64Z"/><path fill="#000000" opacity="1" d=""/><path fill="#000000" opacity="1" d="M-36.05 7.65Q-38.23 7.65-39.93 6.63Q-41.63 5.61-42.56 3.86Q-43.49 2.11-43.49 0.05L-43.49 0.05Q-43.49-2.37-42.27-4.09Q-41.05-5.81-39.14-6.68Q-37.22-7.55-35.23-7.55L-35.23-7.55Q-33.00-7.55-31.32-6.50Q-29.63-5.46-28.72-3.75Q-27.82-2.04-27.82-0.11L-27.82-0.11Q-27.82 2.02-28.95 3.80Q-30.07 5.58-31.96 6.62Q-33.85 7.65-36.05 7.65L-36.05 7.65ZM-35.28 7.06Q-33.97 7.06-32.92 6.30Q-31.88 5.54-31.29 4.07Q-30.71 2.61-30.71 0.57L-30.71 0.57Q-30.71-1.59-31.36-3.29Q-32.02-4.99-33.26-5.95Q-34.50-6.91-36.17-6.91L-36.17-6.91Q-38.30-6.91-39.45-5.31Q-40.60-3.70-40.60-0.82L-40.60-0.82Q-40.60 1.46-39.91 3.25Q-39.22 5.04-38.01 6.05Q-36.80 7.06-35.28 7.06L-35.28 7.06Z"/><path fill="#000000" opacity="1" d="M-14.15-7.08L-14.10-3.96Q-14.10-3.91-14.23-3.89Q-14.36-3.87-14.39-3.94L-14.39-3.94Q-14.76-5.30-15.65-5.95Q-16.54-6.61-18.00-6.61L-18.00-6.61L-18.70-6.61Q-19.40-6.61-19.73-6.30Q-20.06-6.00-20.06-5.37L-20.06-5.37L-20.06-0.30L-18.37-0.30Q-17.01-0.30-16.30-0.78Q-15.58-1.26-15.58-2.11L-15.58-2.11Q-15.58-2.15-15.44-2.15Q-15.30-2.15-15.30-2.11L-15.30-2.11L-15.32 0.03Q-15.32 0.78-15.30 1.15L-15.30 1.15L-15.28 2.40Q-15.28 2.47-15.42 2.47Q-15.56 2.47-15.56 2.40L-15.56 2.40Q-15.56 1.46-16.30 0.91Q-17.04 0.36-18.40 0.36L-18.40 0.36L-20.06 0.36L-20.06 5.37Q-20.06 6.10-19.87 6.45Q-19.69 6.80-19.17 6.94Q-18.65 7.08-17.55 7.08L-17.55 7.08Q-17.50 7.08-17.50 7.23Q-17.50 7.37-17.55 7.37L-17.55 7.37Q-18.51 7.37-19.05 7.34L-19.05 7.34L-21.44 7.32L-23.20 7.34Q-23.67 7.37-24.49 7.37L-24.49 7.37Q-24.56 7.37-24.56 7.23Q-24.56 7.08-24.49 7.08L-24.49 7.08Q-23.67 7.08-23.30 6.97Q-22.92 6.85-22.79 6.51Q-22.66 6.17-22.66 5.47L-22.66 5.47L-22.66-5.39Q-22.66-6.09-22.78-6.42Q-22.90-6.75-23.25-6.88Q-23.60-7.01-24.33-7.01L-24.33-7.01Q-24.40-7.01-24.40-7.15Q-24.40-7.29-24.33-7.29L-24.33-7.29L-14.39-7.29Q-14.15-7.29-14.15-7.08L-14.15-7.08Z"/><path fill="#000000" opacity="1" d=""/><path fill="#000000" opacity="1" d="M10.77 7.08Q10.85 7.08 10.85 7.23Q10.85 7.37 10.77 7.37L10.77 7.37L8.15 7.37Q7.77 7.37 7.52 7.39Q7.26 7.41 7.09 7.41L7.09 7.41Q6.72 7.41 6.45 7.24Q6.18 7.06 5.79 6.59Q5.40 6.12 4.42 4.79L4.42 4.79Q4.30 4.62 4.15 4.42Q4.00 4.22 3.81 3.97L3.81 3.97L0.74-0.16L0.22 0.36L0.22 5.47Q0.22 6.19 0.34 6.52Q0.46 6.85 0.80 6.97Q1.14 7.08 1.89 7.08L1.89 7.08Q1.98 7.08 1.98 7.23Q1.98 7.37 1.89 7.37L1.89 7.37Q1.11 7.37 0.67 7.34L0.67 7.34L-1.09 7.32L-2.83 7.34Q-3.29 7.37-4.09 7.37L-4.09 7.37Q-4.14 7.37-4.14 7.23Q-4.14 7.08-4.09 7.08L-4.09 7.08Q-3.34 7.08-2.99 6.97Q-2.64 6.85-2.51 6.51Q-2.38 6.17-2.38 5.47L-2.38 5.47L-2.38-5.39Q-2.38-6.09-2.51-6.42Q-2.64-6.75-2.98-6.88Q-3.32-7.01-4.04-7.01L-4.04-7.01Q-4.12-7.01-4.12-7.15Q-4.12-7.29-4.04-7.29L-4.04-7.29L-2.80-7.27Q-1.72-7.22-1.09-7.22L-1.09-7.22Q-0.39-7.22 0.69-7.27L0.69-7.27L1.89-7.29Q1.96-7.29 1.96-7.15Q1.96-7.01 1.89-7.01L1.89-7.01Q1.16-7.01 0.82-6.87Q0.48-6.73 0.35-6.39Q0.22-6.05 0.22-5.34L0.22-5.34L0.22-0.37L4.63-4.87Q5.31-5.55 5.31-6.12L5.31-6.12Q5.31-6.54 4.94-6.77Q4.56-7.01 3.88-7.01L3.88-7.01Q3.81-7.01 3.81-7.15Q3.81-7.29 3.88-7.29L3.88-7.29L4.98-7.27Q6.01-7.22 6.91-7.22L6.91-7.22Q7.87-7.22 8.90-7.27L8.90-7.27L9.95-7.29Q10.02-7.29 10.02-7.15Q10.02-7.01 9.95-7.01L9.95-7.01Q8.88-7.01 7.59-6.39Q6.30-5.77 5.24-4.73L5.24-4.73L2.59-2.04L6.06 2.65Q7.59 4.83 8.35 5.74Q9.11 6.64 9.58 6.86Q10.05 7.08 10.77 7.08L10.77 7.08Z"/><path fill="#000000" opacity="1" d="M25.34-4.29Q25.34-5.55 24.76-6.28Q24.19-7.01 23.16-7.01L23.16-7.01Q23.11-7.01 23.11-7.15Q23.11-7.29 23.16-7.29L23.16-7.29L24.28-7.27Q25.17-7.22 25.71-7.22L25.71-7.22Q26.16-7.22 27.00-7.27L27.00-7.27L28.08-7.29Q28.13-7.29 28.13-7.15Q28.13-7.01 28.08-7.01L28.08-7.01Q27.17-7.01 26.65-6.28Q26.13-5.55 26.13-4.29L26.13-4.29L26.13 2.23Q26.13 3.87 25.41 5.12Q24.68 6.36 23.35 7.03Q22.03 7.69 20.29 7.69L20.29 7.69Q18.56 7.69 17.22 7.04Q15.89 6.38 15.12 5.13Q14.36 3.87 14.36 2.18L14.36 2.18L14.36-5.39Q14.36-6.09 14.23-6.42Q14.10-6.75 13.76-6.88Q13.42-7.01 12.70-7.01L12.70-7.01Q12.63-7.01 12.63-7.15Q12.63-7.29 12.70-7.29L12.70-7.29L13.94-7.27Q15.02-7.22 15.65-7.22L15.65-7.22Q16.36-7.22 17.43-7.27L17.43-7.27L18.63-7.29Q18.70-7.29 18.70-7.15Q18.70-7.01 18.63-7.01L18.63-7.01Q17.90-7.01 17.56-6.87Q17.22-6.73 17.09-6.39Q16.97-6.05 16.97-5.34L16.97-5.34L16.97 1.36Q16.97 4.15 18.07 5.49Q19.17 6.83 21.19 6.83L21.19 6.83Q23.13 6.83 24.23 5.64Q25.34 4.46 25.34 2.25L25.34 2.25L25.34-4.29Z"/><path fill="#000000" opacity="1" d="M49.35 7.08Q49.39 7.08 49.39 7.23Q49.39 7.37 49.35 7.37L49.35 7.37Q48.55 7.37 48.08 7.34L48.08 7.34L46.35 7.32L44.59 7.34Q44.14 7.37 43.37 7.37L43.37 7.37Q43.30 7.37 43.30 7.23Q43.30 7.08 43.37 7.08L43.37 7.08Q44.35 7.08 44.70 6.85Q45.06 6.62 45.06 5.87L45.06 5.87L45.03 5.47L44.54-4.12L39.71 7.20Q39.66 7.30 39.52 7.30L39.52 7.30Q39.38 7.30 39.34 7.20L39.34 7.20L33.40-4.08L33.22 4.39Q33.19 5.65 33.72 6.37Q34.25 7.08 35.21 7.08L35.21 7.08Q35.28 7.08 35.28 7.23Q35.28 7.37 35.21 7.37L35.21 7.37Q34.58 7.37 34.22 7.34L34.22 7.34L32.93 7.32L31.46 7.34Q31.08 7.37 30.45 7.37L30.45 7.37Q30.38 7.37 30.38 7.23Q30.38 7.08 30.45 7.08L30.45 7.08Q31.41 7.08 31.97 6.36Q32.54 5.63 32.56 4.39L32.56 4.39L32.77-5.32L32.75-5.34Q32.28-6.21 31.77-6.61Q31.27-7.01 30.61-7.01L30.61-7.01Q30.54-7.01 30.54-7.15Q30.54-7.29 30.61-7.29L30.61-7.29L31.71-7.27Q32.04-7.24 32.56-7.24L32.56-7.24L33.80-7.27Q34.01-7.29 34.34-7.29L34.34-7.29Q34.65-7.29 34.81-7.08Q34.97-6.87 35.42-6.07L35.42-6.07L40.53 3.52L44.99-6.70Q45.13-7.03 45.28-7.16Q45.43-7.29 45.69-7.29L45.69-7.29Q45.90-7.29 46.17-7.27Q46.44-7.24 46.79-7.24L46.79-7.24L48.18-7.27Q48.50-7.29 49.11-7.29L49.11-7.29Q49.18-7.29 49.18-7.15Q49.18-7.01 49.11-7.01L49.11-7.01Q48.01-7.01 47.52-6.56Q47.03-6.12 47.07-5.18L47.07-5.18L47.64 5.47Q47.68 6.19 47.81 6.52Q47.94 6.85 48.28 6.97Q48.62 7.08 49.35 7.08L49.35 7.08Z"/><path fill="#000000" opacity="1" d="M68.11 7.08Q68.22 7.08 68.22 7.23Q68.22 7.37 68.11 7.37L68.11 7.37Q67.64 7.37 66.65 7.32L66.65 7.32Q65.62 7.27 65.18 7.27L65.18 7.27Q64.59 7.27 63.75 7.32L63.75 7.32Q62.95 7.37 62.48 7.37L62.48 7.37Q62.39 7.37 62.39 7.23Q62.39 7.08 62.48 7.08L62.48 7.08Q63.09 7.08 63.36 6.96Q63.63 6.83 63.63 6.50L63.63 6.50Q63.63 6.10 63.16 5.16L63.16 5.16L60.72 0.36L56.55 0.36L54.88 4.04Q54.58 4.72 54.58 5.30L54.58 5.30Q54.58 6.15 55.17 6.62Q55.77 7.08 56.78 7.08L56.78 7.08Q56.90 7.08 56.90 7.23Q56.90 7.37 56.78 7.37L56.78 7.37Q56.36 7.37 55.56 7.32L55.56 7.32Q54.67 7.27 54.01 7.27L54.01 7.27Q53.38 7.27 52.49 7.32L52.49 7.32Q51.69 7.37 51.20 7.37L51.20 7.37Q51.11 7.37 51.11 7.23Q51.11 7.08 51.20 7.08L51.20 7.08Q51.86 7.08 52.30 6.82Q52.75 6.55 53.19 5.85Q53.64 5.16 54.25 3.80L54.25 3.80L59.34-7.38Q59.38-7.45 59.55-7.45L59.55-7.45Q59.74-7.45 59.76-7.38L59.76-7.38L65.62 4.15Q66.44 5.82 66.98 6.45Q67.52 7.08 68.11 7.08L68.11 7.08ZM58.52-4.01L56.85-0.30L60.39-0.30L58.52-4.01Z"/><path fill="#000000" opacity="1" d="M86.07 7.08Q86.12 7.08 86.12 7.23Q86.12 7.37 86.07 7.37L86.07 7.37L81.89 7.37Q81.38 7.37 79.97 5.43Q78.56 3.50 76.57 0.03L76.57 0.03Q76.38 0.05 76.03 0.05L76.03 0.05Q75.12 0.05 74.74 0.03L74.74 0.03L74.74 5.47Q74.74 6.19 74.86 6.52Q74.98 6.85 75.32 6.97Q75.66 7.08 76.41 7.08L76.41 7.08Q76.45 7.08 76.45 7.23Q76.45 7.37 76.41 7.37L76.41 7.37Q75.63 7.37 75.19 7.34L75.19 7.34L73.41 7.32L71.69 7.34Q71.23 7.37 70.43 7.37L70.43 7.37Q70.36 7.37 70.36 7.23Q70.36 7.08 70.43 7.08L70.43 7.08Q71.18 7.08 71.52 6.97Q71.86 6.85 71.99 6.51Q72.12 6.17 72.12 5.47L72.12 5.47L72.12-5.39Q72.12-6.09 72.00-6.42Q71.88-6.75 71.53-6.88Q71.18-7.01 70.45-7.01L70.45-7.01Q70.40-7.01 70.40-7.15Q70.40-7.29 70.45-7.29L70.45-7.29L71.69-7.27Q72.77-7.22 73.41-7.22L73.41-7.22Q74.09-7.22 74.91-7.29L74.91-7.29Q75.16-7.31 75.58-7.34Q75.99-7.36 76.55-7.36L76.55-7.36Q78.71-7.36 79.89-6.57Q81.07-5.79 81.07-4.38L81.07-4.38Q81.07-3.30 80.42-2.32Q79.76-1.33 78.71-0.72L78.71-0.72Q80.58 2.23 81.86 3.90Q83.14 5.56 84.13 6.32Q85.13 7.08 86.07 7.08L86.07 7.08ZM74.74-0.65Q75.31-0.56 76.10-0.56L76.10-0.56Q76.95-0.56 77.44-0.82Q77.93-1.08 78.15-1.71Q78.38-2.34 78.38-3.49L78.38-3.49Q78.38-5.41 77.81-6.14Q77.25-6.87 76.20-6.87L76.20-6.87Q75.40-6.87 75.07-6.52Q74.74-6.16 74.74-5.34L74.74-5.34L74.74-0.65Z"/><path fill="#000000" opacity="1" d=""/><path fill="#000000" opacity="1" d="M101.73 7.46Q100.98 7.46 99.95 7.39L99.95 7.39Q99.57 7.37 99.02 7.34Q98.47 7.32 97.79 7.32L97.79 7.32L96.06 7.34Q95.59 7.37 94.79 7.37L94.79 7.37Q94.74 7.37 94.74 7.23Q94.74 7.08 94.79 7.08L94.79 7.08Q95.54 7.08 95.89 6.97Q96.25 6.85 96.37 6.51Q96.50 6.17 96.50 5.47L96.50 5.47L96.50-5.39Q96.50-6.09 96.37-6.42Q96.25-6.75 95.91-6.88Q95.57-7.01 94.84-7.01L94.84-7.01Q94.77-7.01 94.77-7.15Q94.77-7.29 94.84-7.29L94.84-7.29L96.08-7.27Q97.16-7.22 97.79-7.22L97.79-7.22Q98.75-7.22 99.76-7.29L99.76-7.29Q100.98-7.34 101.40-7.34L101.40-7.34Q103.77-7.34 105.61-6.40Q107.45-5.46 108.46-3.84Q109.47-2.22 109.47-0.21L109.47-0.21Q109.47 2.07 108.43 3.81Q107.38 5.56 105.61 6.51Q103.84 7.46 101.73 7.46L101.73 7.46ZM101.50 6.92Q103.00 6.92 104.15 6.16Q105.30 5.40 105.94 3.90Q106.59 2.40 106.59 0.31L106.59 0.31Q106.59-1.69 105.98-3.31Q105.37-4.94 104.24-5.88Q103.12-6.82 101.64-6.82L101.64-6.82Q100.18-6.82 99.65-6.54Q99.11-6.26 99.11-5.34L99.11-5.34L99.11 5.21Q99.11 6.15 99.60 6.53Q100.09 6.92 101.50 6.92L101.50 6.92Z"/><path fill="#000000" opacity="1" d="M123.63 3.64Q123.63 3.59 123.73 3.59L123.73 3.59Q123.80 3.59 123.86 3.63Q123.91 3.66 123.91 3.68L123.91 3.68Q123.68 5.51 123.68 7.01L123.68 7.01Q123.68 7.20 123.61 7.28Q123.54 7.37 123.33 7.37L123.33 7.37L112.96 7.37Q112.89 7.37 112.89 7.23Q112.89 7.08 112.96 7.08L112.96 7.08Q113.71 7.08 114.05 6.97Q114.39 6.85 114.51 6.51Q114.63 6.17 114.63 5.47L114.63 5.47L114.63-5.39Q114.63-6.09 114.51-6.42Q114.39-6.75 114.04-6.88Q113.69-7.01 112.96-7.01L112.96-7.01Q112.89-7.01 112.89-7.15Q112.89-7.29 112.96-7.29L112.96-7.29L122.91-7.29Q123.14-7.29 123.14-7.08L123.14-7.08L123.19-3.96Q123.19-3.91 123.06-3.89Q122.93-3.87 122.91-3.94L122.91-3.94Q122.53-5.30 121.64-5.95Q120.75-6.61 119.30-6.61L119.30-6.61L118.59-6.61Q117.89-6.61 117.56-6.30Q117.23-6.00 117.23-5.37L117.23-5.37L117.23-0.58L119.18-0.58Q120.54-0.58 121.26-1.05Q121.99-1.52 121.99-2.37L121.99-2.37Q121.99-2.44 122.12-2.44Q122.25-2.44 122.25-2.37L122.25-2.37L122.23-0.25L122.25 0.87Q122.30 1.67 122.30 2.14L122.30 2.14Q122.30 2.18 122.16 2.18Q122.02 2.18 122.02 2.14L122.02 2.14Q122.02 1.18 121.28 0.62Q120.54 0.07 119.15 0.07L119.15 0.07L117.23 0.07L117.23 5.37Q117.23 6.05 117.49 6.38Q117.75 6.71 118.31 6.71L118.31 6.71L119.08 6.71Q120.91 6.71 122.02 5.96Q123.12 5.21 123.63 3.64L123.63 3.64Z"/><path fill="#000000" opacity="1" d="M137.96 3.64Q137.96 3.59 138.05 3.59L138.05 3.59Q138.12 3.59 138.18 3.63Q138.24 3.66 138.24 3.68L138.24 3.68Q138.01 5.51 138.01 7.01L138.01 7.01Q138.01 7.20 137.94 7.28Q137.87 7.37 137.66 7.37L137.66 7.37L127.29 7.37Q127.22 7.37 127.22 7.23Q127.22 7.08 127.29 7.08L127.29 7.08Q128.04 7.08 128.38 6.97Q128.72 6.85 128.84 6.51Q128.96 6.17 128.96 5.47L128.96 5.47L128.96-5.39Q128.96-6.09 128.84-6.42Q128.72-6.75 128.37-6.88Q128.02-7.01 127.29-7.01L127.29-7.01Q127.22-7.01 127.22-7.15Q127.22-7.29 127.29-7.29L127.29-7.29L137.23-7.29Q137.47-7.29 137.47-7.08L137.47-7.08L137.51-3.96Q137.51-3.91 137.39-3.89Q137.26-3.87 137.23-3.94L137.23-3.94Q136.86-5.30 135.97-5.95Q135.08-6.61 133.62-6.61L133.62-6.61L132.92-6.61Q132.22-6.61 131.89-6.30Q131.56-6.00 131.56-5.37L131.56-5.37L131.56-0.58L133.51-0.58Q134.87-0.58 135.59-1.05Q136.32-1.52 136.32-2.37L136.32-2.37Q136.32-2.44 136.45-2.44Q136.58-2.44 136.58-2.37L136.58-2.37L136.55-0.25L136.58 0.87Q136.62 1.67 136.62 2.14L136.62 2.14Q136.62 2.18 136.48 2.18Q136.34 2.18 136.34 2.14L136.34 2.14Q136.34 1.18 135.60 0.62Q134.87 0.07 133.48 0.07L133.48 0.07L131.56 0.07L131.56 5.37Q131.56 6.05 131.82 6.38Q132.07 6.71 132.64 6.71L132.64 6.71L133.41 6.71Q135.24 6.71 136.34 5.96Q137.44 5.21 137.96 3.64L137.96 3.64Z"/><path fill="#000000" opacity="1" d="M145.72 5.37Q145.72 6.12 145.89 6.46Q146.05 6.80 146.51 6.94Q146.96 7.08 147.97 7.08L147.97 7.08Q148.04 7.08 148.04 7.23Q148.04 7.37 147.97 7.37L147.97 7.37Q147.01 7.37 146.47 7.34L146.47 7.34L144.43 7.32L142.72 7.34Q142.25 7.37 141.45 7.37L141.45 7.37Q141.38 7.37 141.38 7.23Q141.38 7.08 141.45 7.08L141.45 7.08Q142.20 7.08 142.54 6.97Q142.88 6.85 143.00 6.51Q143.12 6.17 143.12 5.47L143.12 5.47L143.12-5.39Q143.12-6.09 143.00-6.42Q142.88-6.75 142.53-6.88Q142.18-7.01 141.45-7.01L141.45-7.01Q141.38-7.01 141.38-7.15Q141.38-7.29 141.45-7.29L141.45-7.29L142.70-7.27Q143.78-7.22 144.41-7.22L144.41-7.22Q144.97-7.22 145.75-7.29L145.75-7.29Q146.05-7.31 146.52-7.34Q146.99-7.36 147.60-7.36L147.60-7.36Q149.99-7.36 151.37-6.36Q152.76-5.37 152.76-3.28L152.76-3.28Q152.76-1.83 152.01-0.82Q151.26 0.19 150.07 0.71Q148.89 1.22 147.64 1.22L147.64 1.22Q147.01 1.22 146.54 1.11L146.54 1.11Q146.50 1.11 146.50 0.99L146.50 0.99Q146.50 0.92 146.53 0.85Q146.57 0.78 146.61 0.80L146.61 0.80Q146.96 0.89 147.41 0.89L147.41 0.89Q148.49 0.89 149.20-0.11Q149.92-1.12 149.92-2.97L149.92-2.97Q149.92-4.83 149.13-5.84Q148.35-6.84 146.85-6.84L146.85-6.84Q146.19-6.84 145.96-6.54Q145.72-6.23 145.72-5.34L145.72-5.34L145.72 5.37Z"/><path fill="#000000" opacity="1" d="M171.61 7.08Q171.66 7.08 171.66 7.23Q171.66 7.37 171.61 7.37L171.61 7.37L167.44 7.37Q166.92 7.37 165.51 5.43Q164.11 3.50 162.11 0.03L162.11 0.03Q161.92 0.05 161.57 0.05L161.57 0.05Q160.66 0.05 160.28 0.03L160.28 0.03L160.28 5.47Q160.28 6.19 160.40 6.52Q160.52 6.85 160.86 6.97Q161.20 7.08 161.95 7.08L161.95 7.08Q162.00 7.08 162.00 7.23Q162.00 7.37 161.95 7.37L161.95 7.37Q161.17 7.37 160.73 7.34L160.73 7.34L158.95 7.32L157.24 7.34Q156.77 7.37 155.97 7.37L155.97 7.37Q155.90 7.37 155.90 7.23Q155.90 7.08 155.97 7.08L155.97 7.08Q156.72 7.08 157.06 6.97Q157.40 6.85 157.53 6.51Q157.66 6.17 157.66 5.47L157.66 5.47L157.66-5.39Q157.66-6.09 157.54-6.42Q157.42-6.75 157.07-6.88Q156.72-7.01 155.99-7.01L155.99-7.01Q155.95-7.01 155.95-7.15Q155.95-7.29 155.99-7.29L155.99-7.29L157.24-7.27Q158.31-7.22 158.95-7.22L158.95-7.22Q159.63-7.22 160.45-7.29L160.45-7.29Q160.71-7.31 161.12-7.34Q161.53-7.36 162.09-7.36L162.09-7.36Q164.25-7.36 165.43-6.57Q166.61-5.79 166.61-4.38L166.61-4.38Q166.61-3.30 165.96-2.32Q165.30-1.33 164.25-0.72L164.25-0.72Q166.12 2.23 167.40 3.90Q168.68 5.56 169.67 6.32Q170.67 7.08 171.61 7.08L171.61 7.08ZM160.28-0.65Q160.85-0.56 161.64-0.56L161.64-0.56Q162.49-0.56 162.98-0.82Q163.47-1.08 163.70-1.71Q163.92-2.34 163.92-3.49L163.92-3.49Q163.92-5.41 163.36-6.14Q162.79-6.87 161.74-6.87L161.74-6.87Q160.94-6.87 160.61-6.52Q160.28-6.16 160.28-5.34L160.28-5.34L160.28-0.65Z"/><path fill="#000000" opacity="1" d="M189.57 7.08Q189.69 7.08 189.69 7.23Q189.69 7.37 189.57 7.37L189.57 7.37Q189.10 7.37 188.12 7.32L188.12 7.32Q187.09 7.27 186.64 7.27L186.64 7.27Q186.05 7.27 185.21 7.32L185.21 7.32Q184.41 7.37 183.94 7.37L183.94 7.37Q183.85 7.37 183.85 7.23Q183.85 7.08 183.94 7.08L183.94 7.08Q184.55 7.08 184.82 6.96Q185.09 6.83 185.09 6.50L185.09 6.50Q185.09 6.10 184.62 5.16L184.62 5.16L182.18 0.36L178.01 0.36L176.35 4.04Q176.04 4.72 176.04 5.30L176.04 5.30Q176.04 6.15 176.64 6.62Q177.24 7.08 178.25 7.08L178.25 7.08Q178.36 7.08 178.36 7.23Q178.36 7.37 178.25 7.37L178.25 7.37Q177.82 7.37 177.03 7.32L177.03 7.32Q176.13 7.27 175.48 7.27L175.48 7.27Q174.85 7.27 173.95 7.32L173.95 7.32Q173.16 7.37 172.66 7.37L172.66 7.37Q172.57 7.37 172.57 7.23Q172.57 7.08 172.66 7.08L172.66 7.08Q173.32 7.08 173.77 6.82Q174.21 6.55 174.66 5.85Q175.10 5.16 175.71 3.80L175.71 3.80L180.80-7.38Q180.85-7.45 181.01-7.45L181.01-7.45Q181.20-7.45 181.22-7.38L181.22-7.38L187.09 4.15Q187.91 5.82 188.45 6.45Q188.98 7.08 189.57 7.08L189.57 7.08ZM179.98-4.01L178.32-0.30L181.86-0.30L179.98-4.01Z"/><path fill="#000000" opacity="1" d="M197.82-7.29Q197.90-7.29 197.90-7.15Q197.90-7.01 197.82-7.01L197.82-7.01Q197.22-7.01 196.92-6.87Q196.63-6.73 196.54-6.39Q196.44-6.05 196.44-5.34L196.44-5.34L196.44 7.46Q196.44 10.09 195.14 11.56Q193.84 13.04 191.52 13.04L191.52 13.04Q190.63 13.04 190.06 12.67Q189.50 12.29 189.50 11.63L189.50 11.63Q189.50 11.16 189.81 10.80Q190.11 10.44 190.72 10.44L190.72 10.44Q191.31 10.44 191.62 10.79Q191.94 11.14 192.20 11.77L192.20 11.77Q192.34 12.15 192.48 12.35Q192.62 12.55 192.83 12.55L192.83 12.55Q193.32 12.55 193.56 11.75Q193.79 10.95 193.79 9.10L193.79 9.10L193.79-5.39Q193.79-6.09 193.64-6.42Q193.49-6.75 193.09-6.88Q192.69-7.01 191.82-7.01L191.82-7.01Q191.78-7.01 191.78-7.15Q191.78-7.29 191.82-7.29L191.82-7.29L193.28-7.27Q194.40-7.22 195.08-7.22L195.08-7.22Q195.74-7.22 196.72-7.27L196.72-7.27L197.82-7.29Z"/></g><g transform="matrix(1.6615384615384614 0 0 1.6615384615384616 250 219.0401918990902)"  >
<path style="stroke: none; stroke-width: 0; stroke-dasharray: none; stroke-linecap: butt; stroke-dashoffset: 0; stroke-linejoin: miter; stroke-miterlimit: 4; fill: rgb(89,82,65); fill-rule: nonzero; opacity: 1;"  transform=" translate(-50.1, -50.099999999999994)" d="M 5.6 48 c 0.9 0 1.7 -0.7 1.7 -1.7 c 0 -0.9 -0.7 -1.7 -1.7 -1.7 c -0.9 0 -1.7 0.7 -1.7 1.7 C 3.9 47.3 4.7 48 5.6 48 z M 53.7 92.8 c -0.9 0 -1.7 0.7 -1.7 1.7 c 0 0.9 0.7 1.7 1.7 1.7 c 0.9 0 1.7 -0.7 1.7 -1.7 C 55.4 93.6 54.6 92.8 53.7 92.8 z M 46.3 92.8 c -0.9 0 -1.7 0.7 -1.7 1.7 c 0 0.9 0.7 1.7 1.7 1.7 c 0.9 0 1.7 -0.7 1.7 -1.7 C 48 93.6 47.3 92.8 46.3 92.8 z M 20.3 21.9 c 0.9 0 1.7 -0.7 1.7 -1.7 c 0 -0.9 -0.7 -1.7 -1.7 -1.7 c -0.9 0 -1.7 0.7 -1.7 1.7 C 18.7 21.1 19.4 21.9 20.3 21.9 z M 20.3 78.1 c -0.9 0 -1.7 0.7 -1.7 1.7 c 0 0.9 0.7 1.7 1.7 1.7 c 0.9 0 1.7 -0.7 1.7 -1.7 C 22 78.8 21.3 78.1 20.3 78.1 z M 7.2 53.7 c 0 -0.9 -0.7 -1.7 -1.7 -1.7 c -0.9 0 -1.7 0.7 -1.7 1.7 c 0 0.9 0.7 1.7 1.7 1.7 C 6.5 55.4 7.2 54.7 7.2 53.7 z M 53.7 7.3 c 0.9 0 1.7 -0.7 1.7 -1.7 c 0 -0.9 -0.7 -1.7 -1.7 -1.7 c -0.9 0 -1.7 0.7 -1.7 1.7 C 52 6.5 52.8 7.3 53.7 7.3 z M 92.8 46.4 c 0 0.9 0.7 1.7 1.7 1.7 c 0.9 0 1.7 -0.7 1.7 -1.7 c 0 -0.9 -0.7 -1.7 -1.7 -1.7 C 93.6 44.7 92.8 45.5 92.8 46.4 z M 80.3 78.1 c -0.9 0 -1.7 0.7 -1.7 1.7 c 0 0.9 0.7 1.7 1.7 1.7 c 0.9 0 1.7 -0.7 1.7 -1.7 C 81.9 78.8 81.2 78.1 80.3 78.1 z M 80.3 21.9 c 0.9 0 1.7 -0.7 1.7 -1.7 c 0 -0.9 -0.7 -1.7 -1.7 -1.7 c -0.9 0 -1.7 0.7 -1.7 1.7 C 78.6 21.1 79.4 21.9 80.3 21.9 z M 94.5 52.1 c -0.9 0 -1.7 0.7 -1.7 1.7 c 0 0.9 0.7 1.7 1.7 1.7 c 0.9 0 1.7 -0.7 1.7 -1.7 C 96.1 52.8 95.4 52.1 94.5 52.1 z M 46.3 7.3 c 0.9 0 1.7 -0.7 1.7 -1.7 c 0 -0.9 -0.7 -1.7 -1.7 -1.7 c -0.9 0 -1.7 0.7 -1.7 1.7 C 44.7 6.5 45.4 7.3 46.3 7.3 z M 89 62.1 c 0.9 -0.7 2.2 -0.8 3.3 -1.6 c 1.4 -1 1.3 -3.1 0.3 -4.3 c -0.4 -0.5 -1.8 -1.9 -2.1 -1 c 0.3 5.7 -3.3 7.2 -9.5 7.7 c -1.1 0.1 -2 0.3 -2.8 0.7 c 1.3 -2.6 2.2 -5.4 2.7 -8.4 c 0.1 -0.5 0.2 -1.1 0.3 -1.6 c 2.7 0.3 4.2 2.4 3.3 4.3 c -0.4 -0.2 -0.9 -0.3 -1.5 -0.3 c -1.5 0 -2.7 0.9 -2.7 2 c 0 0.3 0.1 0.6 0.3 0.9 c 0 0 0 0 0 0 c 0.1 0.1 0.1 0.2 0.2 0.3 c 0.1 0.1 0.1 0.1 0.2 0.2 c 0 0 0.1 0 0.1 0.1 c 0.5 0.4 1.4 0.7 2.7 0.7 c 4.9 -0.4 5.5 -8.7 -2.4 -10.3 c 0 -0.2 0 -0.4 0 -0.5 c 2.5 0.2 4.8 1.2 6.7 4 c 2.7 -3.1 6.6 -4.2 10.7 -4.8 c -4.1 -0.6 -8 -1.7 -10.7 -4.8 c -1.9 2.8 -4.2 3.9 -6.7 4 c 0 -0.2 0 -0.3 0 -0.5 c 7.9 -1.6 7.3 -9.9 2.4 -10.3 c -1.3 0 -2.1 0.3 -2.7 0.7 c 0 0 -0.1 0 -0.1 0.1 c -0.1 0.1 -0.2 0.1 -0.2 0.2 c -0.1 0.1 -0.2 0.2 -0.2 0.3 c 0 0 0 0 0 0 c -0.2 0.3 -0.3 0.6 -0.3 0.9 c 0 1.1 1.2 2 2.7 2 c 0.5 0 1.1 -0.1 1.5 -0.3 c 1 1.9 -0.5 4.1 -3.3 4.3 c 0 -0.1 0 -0.1 0 -0.2 c -0.4 -3.5 -1.4 -6.8 -2.8 -9.8 c 0.8 0.4 1.7 0.6 2.7 0.7 c 6.2 0.5 9.7 2 9.5 7.7 c 0.3 0.9 1.7 -0.5 2.1 -1 c 0.9 -1.3 1.1 -3.3 -0.3 -4.3 c -1.1 -0.8 -2.3 -0.9 -3.3 -1.6 c 2 -1.7 5.4 -0.3 5.3 -0.4 c -3 -3.8 -6.4 -1.8 -9.4 -1.7 c -1.2 0 -5.5 0.1 -6.6 -2.1 c 0.6 0.6 5.3 1.6 8.5 -0.9 c 0.1 -0.1 -1.7 -0.5 -1.3 -0.8 c 1.6 -0.8 3.2 -2.7 2.6 -4.7 c -0.8 -2.6 -1.7 0.6 -2.2 1.6 c -3.1 5.4 -9.5 5.3 -10 -1.4 c -0.2 -3.6 3.6 -5.5 6 -2.7 c 0.8 1 0.8 3 0 3.8 c -0.8 0.8 -1.4 0.6 -1.8 0.2 c 0.7 -0.2 1.2 -1 1.2 -1.9 c 0 -1.1 -0.8 -2 -1.7 -2 s -1.7 0.9 -1.7 2 c 0 0.2 0 0.3 0 0.4 c 0 0 0 0 0 0 c 0.2 1.1 1.3 2.7 3 2.5 c 1.2 -0.1 1.7 -0.8 2.1 -1.6 c 0.4 -0.9 0.3 -2.4 -0.2 -3.3 c -0.9 -1.8 -3.3 -3 -6.1 -1.3 c -2.1 1.2 -3 3.5 -2.9 5.8 c -1 -1.2 -2.2 -2.4 -3.4 -3.4 c 2.3 0.1 4.6 -0.8 5.8 -2.9 c 1.7 -2.8 0.5 -5.2 -1.3 -6.1 c -1 -0.5 -2.4 -0.6 -3.3 -0.2 c -0.8 0.4 -1.5 0.9 -1.6 2.1 c -0.2 1.6 1.4 2.8 2.5 3 c 0 0 0 0 0 0 c 0.1 0 0.3 0 0.4 0 c 1.1 0 2 -0.8 2 -1.7 c 0 -0.9 -0.9 -1.7 -2 -1.7 c -0.9 0 -1.7 0.5 -1.9 1.2 c -0.3 -0.4 -0.6 -1 0.2 -1.8 c 0.8 -0.7 2.8 -0.8 3.8 0 c 2.8 2.3 0.8 6.2 -2.7 6 c -6.7 -0.4 -6.8 -6.9 -1.4 -10 c 1 -0.5 4.2 -1.4 1.6 -2.2 c -2 -0.6 -3.9 1 -4.7 2.6 c -0.2 0.4 -0.7 -1.4 -0.8 -1.3 c -2.5 3.2 -1.5 7.9 -0.9 8.5 c -2.2 -1.1 -2.2 -5.3 -2.1 -6.6 c 0.1 -3 2.2 -6.4 -1.7 -9.4 C 62.3 5.7 63.8 9 62 11 c -0.7 -0.9 -0.8 -2.2 -1.6 -3.3 c -1 -1.4 -3.1 -1.3 -4.3 -0.3 c -0.5 0.4 -1.9 1.8 -1 2.1 c 5.7 -0.3 7.2 3.3 7.7 9.5 c 0.1 1 0.3 1.9 0.6 2.7 c -3.1 -1.5 -6.4 -2.4 -10 -2.8 c 0.3 -2.7 2.4 -4.2 4.3 -3.2 c -0.2 0.4 -0.3 0.9 -0.3 1.5 c 0 1.5 0.9 2.7 2 2.7 c 0.3 0 0.6 -0.1 0.9 -0.3 c 0 0 0 0 0 0 c 0.1 -0.1 0.2 -0.1 0.3 -0.2 c 0.1 -0.1 0.1 -0.1 0.2 -0.2 c 0 0 0 -0.1 0.1 -0.1 c 0.4 -0.5 0.7 -1.4 0.7 -2.7 c -0.4 -4.9 -8.7 -5.5 -10.3 2.4 c -0.2 0 -0.4 0 -0.5 0 c 0.2 -2.5 1.2 -4.7 4 -6.7 C 51.7 9.3 50.7 5.4 50 1.3 c -0.6 4.1 -1.7 8 -4.8 10.7 c 2.8 1.9 3.8 4.2 4 6.7 c -0.2 0 -0.4 0 -0.5 0 c -1.7 -7.9 -9.9 -7.3 -10.3 -2.4 c 0 1.3 0.3 2.1 0.7 2.7 c 0 0 0 0.1 0.1 0.1 c 0.1 0.1 0.1 0.2 0.2 0.2 c 0.1 0.1 0.2 0.2 0.3 0.2 c 0 0 0 0 0 0 c 0.3 0.2 0.6 0.3 0.9 0.3 c 1.1 0 2 -1.2 2 -2.7 c 0 -0.5 -0.1 -1.1 -0.3 -1.5 c 1.9 -1 4 0.5 4.3 3.2 c -3.5 0.4 -6.9 1.4 -10 2.8 c 0.3 -0.8 0.6 -1.7 0.6 -2.7 c 0.5 -6.2 2 -9.7 7.7 -9.5 c 0.9 -0.3 -0.5 -1.7 -1 -2.1 c -1.3 -0.9 -3.3 -1.1 -4.3 0.3 c -0.8 1.1 -0.9 2.3 -1.6 3.3 c -1.7 -2 -0.3 -5.4 -0.4 -5.3 c -3.8 3 -1.8 6.4 -1.7 9.4 c 0 1.2 0.1 5.5 -2.1 6.6 c 0.6 -0.6 1.6 -5.3 -0.9 -8.5 c -0.1 -0.1 -0.5 1.7 -0.8 1.3 c -0.8 -1.6 -2.7 -3.2 -4.7 -2.6 c -2.6 0.8 0.6 1.7 1.6 2.2 c 5.4 3.1 5.3 9.5 -1.4 10 c -3.6 0.2 -5.5 -3.6 -2.7 -6 c 1 -0.8 3 -0.8 3.8 0 c 0.8 0.8 0.6 1.4 0.2 1.8 c -0.2 -0.7 -1 -1.2 -1.9 -1.2 c -1.1 0 -2 0.8 -2 1.7 c 0 0.9 0.9 1.7 2 1.7 c 0.2 0 0.3 0 0.4 0 c 0 0 0 0 0 0 c 1.1 -0.2 2.7 -1.3 2.5 -3 c -0.1 -1.2 -0.8 -1.7 -1.6 -2.1 c -0.9 -0.4 -2.4 -0.3 -3.3 0.2 c -1.8 0.9 -3 3.3 -1.3 6.1 c 1.2 2.1 3.5 3 5.8 2.9 c -0.3 0.3 -0.7 0.6 -1 0.9 c 0 0 -0.1 0.1 -0.1 0.1 c -0.2 0.2 -0.4 0.4 -0.6 0.6 c -0.2 0.2 -0.4 0.4 -0.7 0.7 c 0 0 0 0 -0.1 0.1 c -0.3 0.3 -0.6 0.7 -0.9 1 c 0.1 -2.3 -0.8 -4.6 -2.9 -5.8 c -2.8 -1.7 -5.2 -0.5 -6.1 1.3 c -0.5 1 -0.6 2.4 -0.2 3.3 c 0.4 0.8 0.9 1.5 2.1 1.6 c 1.6 0.2 2.8 -1.4 3 -2.5 c 0 0 0 0 0 0 c 0 -0.1 0 -0.3 0 -0.4 c 0 -1.1 -0.8 -2 -1.7 -2 s -1.7 0.9 -1.7 2 c 0 0.9 0.5 1.7 1.2 1.9 c -0.4 0.3 -1 0.6 -1.8 -0.2 c -0.7 -0.8 -0.8 -2.8 0 -3.8 c 2.3 -2.8 6.2 -0.8 6 2.7 c -0.4 6.7 -6.9 6.8 -10 1.4 c -0.5 -1 -1.4 -4.2 -2.2 -1.6 c -0.6 2 1 3.9 2.6 4.7 c 0.4 0.2 -1.4 0.7 -1.3 0.8 c 3.2 2.5 7.9 1.5 8.5 0.9 c -1.1 2.2 -5.3 2.2 -6.6 2.1 c -3 -0.1 -6.4 -2.2 -9.4 1.7 C 5.6 37.8 9 36.3 11 38.1 c -0.9 0.7 -2.2 0.8 -3.3 1.6 c -1.4 1 -1.3 3.1 -0.3 4.3 c 0.4 0.5 1.8 1.9 2.1 1 c -0.3 -5.7 3.3 -7.2 9.5 -7.7 c 1 -0.1 1.9 -0.3 2.7 -0.6 c -1.5 3.1 -2.4 6.4 -2.8 10 c -2.7 -0.3 -4.2 -2.4 -3.2 -4.3 c 0.4 0.2 0.9 0.3 1.5 0.3 c 1.5 0 2.7 -0.9 2.7 -2 c 0 -0.3 -0.1 -0.6 -0.3 -0.9 c 0 0 0 0 0 0 c -0.1 -0.1 -0.1 -0.2 -0.2 -0.3 c -0.1 -0.1 -0.1 -0.1 -0.2 -0.2 c 0 0 -0.1 0 -0.1 -0.1 c -0.5 -0.4 -1.4 -0.7 -2.7 -0.7 c -4.9 0.4 -5.5 8.7 2.4 10.3 c 0 0.2 0 0.4 0 0.5 c -2.5 -0.2 -4.7 -1.2 -6.7 -4 c -2.7 3.1 -6.6 4.2 -10.7 4.8 c 4.1 0.6 8 1.7 10.7 4.8 c 1.9 -2.8 4.2 -3.8 6.7 -4 c 0 0.2 0 0.4 0 0.5 c -7.9 1.7 -7.3 9.9 -2.4 10.3 c 1.3 0 2.1 -0.3 2.7 -0.7 c 0 0 0.1 0 0.1 -0.1 c 0.1 -0.1 0.2 -0.1 0.2 -0.2 c 0.1 -0.1 0.2 -0.2 0.2 -0.3 c 0 0 0 0 0 0 c 0.2 -0.3 0.3 -0.6 0.3 -0.9 c 0 -1.1 -1.2 -2 -2.7 -2 c -0.5 0 -1.1 0.1 -1.5 0.3 c -1 -1.9 0.5 -4 3.2 -4.3 c 0.4 3.5 1.4 6.9 2.8 10 c -0.8 -0.3 -1.7 -0.6 -2.7 -0.6 c -6.2 -0.5 -9.7 -2 -9.5 -7.7 c -0.3 -0.9 -1.7 0.5 -2.1 1 c -0.9 1.3 -1.1 3.3 0.3 4.3 c 1.1 0.8 2.3 0.9 3.3 1.6 c -2 1.7 -5.4 0.3 -5.3 0.4 c 3 3.8 6.4 1.8 9.4 1.7 c 1.2 0 5.5 -0.1 6.6 2.1 c -0.6 -0.6 -5.3 -1.6 -8.5 0.9 c -0.1 0.1 1.7 0.5 1.3 0.8 c -1.6 0.8 -3.2 2.7 -2.6 4.7 c 0.8 2.6 1.7 -0.6 2.2 -1.6 c 3.1 -5.4 9.5 -5.3 10 1.4 c 0.2 3.6 -3.6 5.5 -6 2.7 c -0.8 -1 -0.8 -3 0 -3.8 c 0.8 -0.8 1.4 -0.6 1.8 -0.2 c -0.7 0.2 -1.2 1 -1.2 1.9 c 0 1.1 0.8 2 1.7 2 s 1.7 -0.9 1.7 -2 c 0 -0.2 0 -0.3 0 -0.4 c 0 0 0 0 0 0 c -0.2 -1.1 -1.3 -2.7 -3 -2.5 c -1.2 0.1 -1.7 0.8 -2.1 1.6 c -0.4 0.9 -0.3 2.4 0.2 3.3 c 0.9 1.8 3.3 3 6.1 1.3 c 2.1 -1.2 3 -3.5 2.9 -5.8 c 1 1.2 2.2 2.3 3.4 3.4 c -2.3 -0.1 -4.6 0.8 -5.8 2.9 c -1.7 2.8 -0.5 5.2 1.3 6.1 c 1 0.5 2.4 0.6 3.3 0.2 c 0.8 -0.4 1.5 -0.9 1.6 -2.1 c 0.2 -1.6 -1.4 -2.8 -2.5 -3 c 0 0 0 0 0 0 c -0.1 0 -0.3 0 -0.4 0 c -1.1 0 -2 0.8 -2 1.7 c 0 0.9 0.9 1.7 2 1.7 c 0.9 0 1.7 -0.5 1.9 -1.2 c 0.3 0.4 0.6 1 -0.2 1.8 c -0.8 0.7 -2.8 0.8 -3.8 0 c -2.8 -2.3 -0.8 -6.2 2.7 -6 c 6.7 0.4 6.8 6.9 1.4 10 c -1 0.5 -4.2 1.4 -1.6 2.2 c 2 0.6 3.9 -1 4.7 -2.6 c 0.2 -0.4 0.7 1.4 0.8 1.3 c 2.5 -3.2 1.5 -7.9 0.9 -8.5 c 2.2 1.1 2.2 5.3 2.1 6.6 c -0.1 3 -2.2 6.4 1.7 9.4 c 0.1 0.1 -1.3 -3.3 0.4 -5.3 c 0.7 0.9 0.8 2.2 1.6 3.3 c 1 1.4 3.1 1.3 4.3 0.3 c 0.5 -0.4 1.9 -1.8 1 -2.1 c -5.7 0.3 -7.2 -3.3 -7.7 -9.5 c -0.1 -1 -0.3 -1.9 -0.7 -2.7 c 3 1.4 6.3 2.4 9.8 2.8 c 0.1 0 0.1 0 0.2 0 c -0.3 2.7 -2.4 4.2 -4.3 3.3 c 0.2 -0.4 0.3 -0.9 0.3 -1.5 c 0 -1.5 -0.9 -2.7 -2 -2.7 c -0.3 0 -0.6 0.1 -0.9 0.3 c 0 0 0 0 0 0 c -0.1 0.1 -0.2 0.1 -0.3 0.2 c -0.1 0.1 -0.1 0.1 -0.2 0.2 c 0 0 0 0.1 -0.1 0.1 c -0.4 0.5 -0.7 1.4 -0.7 2.7 c 0.4 4.9 8.7 5.5 10.3 -2.4 c 0.2 0 0.4 0 0.5 0 c -0.2 2.5 -1.2 4.8 -4 6.7 c 3.1 2.7 4.2 6.6 4.8 10.7 c 0.6 -4.1 1.7 -8 4.8 -10.7 c -2.8 -1.9 -3.9 -4.2 -4 -6.7 c 0.2 0 0.3 0 0.5 0 c 1.6 7.9 9.9 7.3 10.3 2.4 c 0 -1.3 -0.3 -2.1 -0.7 -2.7 c 0 0 0 -0.1 -0.1 -0.1 c -0.1 -0.1 -0.1 -0.2 -0.2 -0.2 c -0.1 -0.1 -0.2 -0.2 -0.3 -0.2 c 0 0 0 0 0 0 c -0.3 -0.2 -0.6 -0.3 -0.9 -0.3 c -1.1 0 -2 1.2 -2 2.7 c 0 0.5 0.1 1.1 0.3 1.5 c -1.9 1 -4.1 -0.5 -4.3 -3.3 c 0.5 -0.1 1.1 -0.2 1.6 -0.3 c 3 -0.5 5.8 -1.4 8.4 -2.7 c -0.4 0.8 -0.6 1.8 -0.7 2.8 c -0.5 6.2 -2 9.7 -7.7 9.5 c -0.9 0.3 0.5 1.7 1 2.1 c 1.3 0.9 3.3 1.1 4.3 -0.3 c 0.8 -1.1 0.9 -2.3 1.6 -3.3 c 1.7 2 0.3 5.4 0.4 5.3 c 3.8 -3 1.8 -6.4 1.7 -9.4 c 0 -1.2 -0.1 -5.5 2.1 -6.6 c -0.6 0.6 -1.6 5.3 0.9 8.5 c 0.1 0.1 0.5 -1.7 0.8 -1.3 c 0.8 1.6 2.7 3.2 4.7 2.6 c 2.6 -0.8 -0.6 -1.7 -1.6 -2.2 c -5.4 -3.1 -5.3 -9.5 1.4 -10 c 3.6 -0.2 5.5 3.6 2.7 6 c -1 0.8 -3 0.8 -3.8 0 c -0.8 -0.8 -0.6 -1.4 -0.2 -1.8 c 0.2 0.7 1 1.2 1.9 1.2 c 1.1 0 2 -0.8 2 -1.7 c 0 -0.9 -0.9 -1.7 -2 -1.7 c -0.2 0 -0.3 0 -0.4 0 c 0 0 0 0 0 0 c -1.1 0.2 -2.7 1.3 -2.5 3 c 0.1 1.2 0.8 1.7 1.6 2.1 c 0.9 0.4 2.4 0.3 3.3 -0.2 c 1.8 -0.9 3 -3.3 1.3 -6.1 c -1.3 -2.1 -3.6 -3 -6 -2.9 c 0.6 -0.5 1.2 -1.1 1.8 -1.7 c 0.6 -0.6 1.2 -1.2 1.8 -1.9 c -0.2 2.4 0.7 4.7 2.9 6 c 2.8 1.7 5.2 0.5 6.1 -1.3 c 0.5 -1 0.6 -2.4 0.2 -3.3 c -0.4 -0.8 -0.9 -1.5 -2.1 -1.6 c -1.6 -0.2 -2.8 1.4 -3 2.5 c 0 0 0 0 0 0 c 0 0.1 0 0.3 0 0.4 c 0 1.1 0.8 2 1.7 2 s 1.7 -0.9 1.7 -2 c 0 -0.9 -0.5 -1.7 -1.2 -1.9 c 0.4 -0.3 1 -0.6 1.8 0.2 c 0.7 0.8 0.8 2.8 0 3.8 c -2.3 2.8 -6.2 0.8 -6 -2.7 c 0.4 -6.7 6.9 -6.8 10 -1.4 c 0.5 1 1.4 4.2 2.2 1.6 c 0.6 -2 -1 -3.9 -2.6 -4.7 c -0.4 -0.2 1.4 -0.7 1.3 -0.8 c -3.2 -2.5 -7.9 -1.5 -8.5 -0.9 c 1.1 -2.2 5.3 -2.2 6.6 -2.1 c 3 0.1 6.4 2.2 9.4 -1.7 C 94.4 62.3 91.1 63.8 89 62.1 z M 82.8 60.6 c -0.7 0 -1.2 -0.5 -1.2 -1.2 s 0.5 -1.2 1.2 -1.2 c 0.7 0 1.2 0.5 1.2 1.2 S 83.4 60.6 82.8 60.6 z M 82.8 41.8 c -0.7 0 -1.2 -0.5 -1.2 -1.2 c 0 -0.7 0.5 -1.2 1.2 -1.2 c 0.7 0 1.2 0.5 1.2 1.2 C 84 41.2 83.4 41.8 82.8 41.8 z M 59.3 15.9 c 0.7 0 1.2 0.5 1.2 1.2 c 0 0.7 -0.5 1.2 -1.2 1.2 s -1.2 -0.5 -1.2 -1.2 C 58.1 16.4 58.6 15.9 59.3 15.9 z M 40.5 18.3 c -0.7 0 -1.2 -0.5 -1.2 -1.2 c 0 -0.7 0.5 -1.2 1.2 -1.2 c 0.7 0 1.2 0.5 1.2 1.2 C 41.7 17.8 41.2 18.3 40.5 18.3 z M 17.1 39.3 c 0.7 0 1.2 0.5 1.2 1.2 c 0 0.7 -0.5 1.2 -1.2 1.2 s -1.2 -0.5 -1.2 -1.2 C 15.9 39.9 16.4 39.3 17.1 39.3 z M 17.1 58.1 c 0.7 0 1.2 0.5 1.2 1.2 s -0.5 1.2 -1.2 1.2 s -1.2 -0.5 -1.2 -1.2 S 16.4 58.1 17.1 58.1 z M 40.5 84 c -0.7 0 -1.2 -0.5 -1.2 -1.2 s 0.5 -1.2 1.2 -1.2 c 0.7 0 1.2 0.5 1.2 1.2 S 41.2 84 40.5 84 z M 59.3 81.6 c 0.7 0 1.2 0.5 1.2 1.2 S 60 84 59.3 84 s -1.2 -0.5 -1.2 -1.2 S 58.6 81.6 59.3 81.6 z M 71.1 71.1 c -5.4 5.4 -12.8 8.7 -21.1 8.7 c -16.5 0 -29.9 -13.4 -29.9 -29.9 c 0 -8.2 3.3 -15.7 8.7 -21.1 c 5.4 -5.4 12.8 -8.7 21.1 -8.7 c 16.5 0 29.9 13.4 29.9 29.9 C 79.8 58.3 76.5 65.7 71.1 71.1 z M 72.2 27.1 c 0 0.4 0.3 0.7 0.7 0.7 s 0.7 -0.3 0.7 -0.7 c 0 -0.4 -0.3 -0.7 -0.7 -0.7 S 72.2 26.8 72.2 27.1 z M 27.8 27.1 c 0 -0.4 -0.3 -0.7 -0.7 -0.7 s -0.7 0.3 -0.7 0.7 c 0 0.4 0.3 0.7 0.7 0.7 S 27.8 27.5 27.8 27.1 z M 72.2 73.2 c 0 0.4 0.3 0.7 0.7 0.7 s 0.7 -0.3 0.7 -0.7 s -0.3 -0.7 -0.7 -0.7 S 72.2 72.9 72.2 73.2 z M 27.8 73.2 c 0 -0.4 -0.3 -0.7 -0.7 -0.7 s -0.7 0.3 -0.7 0.7 s 0.3 0.7 0.7 0.7 S 27.8 73.6 27.8 73.2 z" stroke-linecap="round" />
</g>
<g transform="matrix(0.7331896139304981 0 0 0.7331896139304981 249.99999999999997 219.0401902494136)"  >
<path style="stroke: none; stroke-width: 0; stroke-dasharray: none; stroke-linecap: butt; stroke-dashoffset: 0; stroke-linejoin: miter; stroke-miterlimit: 4; fill: rgb(89,82,65); fill-rule: nonzero; opacity: 1;"  transform=" translate(-49.99999974999999, -1002.3622)" d="m 49.999997 962.3622 c -22.14799 0 -39.9999995 18.0229 -39.9999995 40.0157 c 0 21.9927 17.8520095 39.9843 39.9999995 39.9843 c 22.14799 0 40.000005 -17.9916 40.000005 -39.9843 c 0 -21.9928 -17.852015 -40.0157 -40.000005 -40.0157 z m 0 3.85119 c 19.727441 0 35.822291 16.1015 35.822291 36.16451 c 0 7.0027 -1.97019 13.5205 -5.362431 19.0372 c -0.305489 -3.9079 -0.62517 -7.7518 -0.935309 -10.8651 c -0.214421 -2.1478 -0.44097 -4.2185 -0.779421 -6.2308 c -0.22655 -1.738 -1.700639 -3.1647 -3.02401 -4.1018 c -3.365979 -2.3779 -7.07691 -3.6763 -10.8184 -5.63611 c -0.29425 -0.1635 -0.6302 -0.2506 -0.96648 -0.2504 c -0.38666 0.01 -0.77099 0.1266 -1.0912 0.3443 c 0 0 -5.52871 3.6948 -12.84489 3.6948 c -7.31618 0 -12.8449 -3.6948 -12.8449 -3.6948 c -0.39166 -0.258 -0.87576 -0.3711 -1.3406 -0.3131 c -0.24993 0.027 -0.49464 0.1017 -0.71707 0.2192 c -3.86075 1.9734 -7.4484 3.276 -10.8184 5.63611 c -1.79247 1.313 -2.61007 2.2798 -2.96173 4.133 c -0.27324 2.0254 -0.486 4.2614 -0.65471 6.043 c -0.29781 3.1543 -0.63212 7.2234 -0.96649 11.2408 c -3.47895 -5.5648 -5.51831 -12.1571 -5.51831 -19.2564 c 0 -20.06301 16.09485 -36.1645 35.82229 -36.1645 z m 0 4.9159 c -6.16106 0 -11.223689 5.9533 -11.223689 13.2133 c 0 7.2601 5.062629 13.182 11.223689 13.182 c 6.161061 0 11.223691 -5.9219 11.223691 -13.182 c 0 -7.26 -5.06263 -13.2133 -11.22369 -13.2133 z m 0 4.3522 c 4.16998 0 7.482461 3.94731 7.482461 8.8611 c 0 4.9138 -3.31248 8.8298 -7.482461 8.8298 c -4.16998 0 -7.48246 -3.916 -7.48246 -8.8298 c 0 -4.9138 3.31248 -8.8611 7.48246 -8.8611 z m -13.99844 23.1078 c 0.60592 0.3728 1.97942 1.15161 3.92829 1.90991 l -1.90179 23.7339 c -0.10397 1.11 0.88523 2.1966 1.99532 2.1918 l 3.99065 0 l 0 6.0117 c 0.00011 1.0492 0.95061 2.0038 1.99532 2.0039 l 7.981301 0 c 1.044709 -0.0001 1.99521 -0.9547 1.99532 -2.0039 l 0 -6.0117 l 3.99065 0 c 1.11009 0 2.09929 -1.0818 1.99532 -2.1918 l -1.90179 -23.7339 c 1.94887 -0.7583 3.32237 -1.53711 3.92829 -1.90991 c 3.38078 1.73751 6.41514 2.78661 9.41543 4.88451 c 0.89771 0.4426 1.10831 1.0474 1.40293 1.5968 c 0.33977 1.9557 0.54558 4.1379 0.71707 5.8552 c 0.53623 5.5709 0.94587 10.4942 1.30943 15.4051 c -6.5735 7.4848 -16.17924 12.1801 -26.84334 12.1801 c -10.58436 0 -20.11825 -4.6362 -26.68745 -12.0235 c 0.40317 -5.1574 0.87258 -10.7388 1.34061 -15.7182 c 0.19818 -2.0963 0.36555 -4.2304 0.68594 -6.1683 c -0.008 0.058 0.4035 -0.5315 1.24708 -1.1272 c 2.95778 -1.9975 6.27957 -3.3452 9.41542 -4.88451 z m 7.85658 3.09971 c 0.0519 0.012 0.10354 0.02 0.15589 0.031 l 0 20.6966 l -1.80826 0 l 1.65237 -20.728 z m 12.28372 0 l 1.65237 20.728 l -1.80826 0 l 0 -20.6966 c 0.0524 -0.011 0.10398 -0.02 0.15589 -0.031 z m -8.13718 0.6263 c 0.6483 0.045 1.30485 0.063 1.99532 0.063 c 0.69047 0 1.34702 -0.017 1.99532 -0.063 l 0 28.1174 l -3.99064 0 z" stroke-linecap="round" />
</g>
</svg>